

Storyline

Curator Harry Deane is an expert in fine art,
but he's equally accomplished in taking abuse from his 
insolent boss. That's about to change. The plan - trick 
the avid art collector into buying a fake Monet painting. 
To assist in the heist, Deane hires a rowdy Texas cowgirl 
to help him fool the richest man in England. But as the plan 
begins to unravel, Deane finds he is falling in love with the 
rodeo queen, ensuing further complications


Cast

 
Colin Firth 

Cameron Diaz

Alan Rickman



screenshots

 
http://www.shotpix.com/images/34539280884260821212.jpg



Rip Information

General
Format                                   : Matroska
Format version                           : Version 4 / Version 2
File size                                : 306 MiB
Duration                                 : 1h 25mn
Overall bit rate                         : 500 Kbps
Movie name                               : Gambit 2012 BRRip x264 (mkv) [rdx004]-=-{{D.M.R.G}}
Encoded date                             : UTC 2013-03-06 05:48:30

Video


ID                                       : 1
Format                                   : AVC
Format/Info                              : Advanced Video Codec
Format profile                           : High@L2.1
Format settings, CABAC                   : Yes
Format settings, ReFrames                : 4 frames
Codec ID                                 : V_MPEG4/ISO/AVC
Duration                                 : 1h 25mn
Bit rate                                 : 440 Kbps
Width                                    : 640 pixels
Height                                   : 272 pixels
Display aspect ratio                     : 16:9
Original display aspect ratio            : 2.35:1
Frame rate mode                          : Constant
Frame rate                               : 25.000 fps
Color space                              : YUV
Chroma subsampling                       : 4:2:0
Bit depth                                : 8 bits
Scan type                                : Progressive
Bits/(Pixel*Frame)                       : 0.101
Stream size                              : 261 MiB (85%)
Writing library                          : x264 core 112
Language                                 : English
Default                                  : Yes
Forced                                   : No
Color primaries                          : BT.601 NTSC
Transfer characteristics                 : BT.709
Matrix coefficients                      : BT.601

Audio


ID                                       : 2
Format                                   : MPEG Audio
Format version                           : Version 2
Format profile                           : Layer 3
Codec ID                                 : A_MPEG/L3
Codec ID/Hint                            : MP3
Duration                                 : 1h 25mn
Bit rate mode                            : Constant
Bit rate                                 : 64.0 Kbps
Channel(s)                               : 2 channels
Sampling rate                            : 22.05 KHz
Compression mode                         : Lossy
Stream size                              : 39.2 MiB (13%)
Writing library                          : LAMELAME
Language                                 : English
Default                                  : Yes
Forced                                   : No

Sub

ID                                       : 3
Format                                   : UTF-8
Codec ID                                 : S_TEXT/UTF8
Codec ID/Info                            : UTF-8 Plain Text
Language                                 : English
Default                                  : No
Forced                                   : No

